<svg width="3300" height="861" xmlns="http://www.w3.org/2000/svg" xmlns:xlink="http://www.w3.org/1999/xlink" xml:space="preserve" overflow="hidden"><defs><linearGradient x1="2200" y1="798.142" x2="2200" y2="1326.14" gradientUnits="userSpaceOnUse" spreadMethod="reflect" id="fill0"><stop offset="0" stop-color="#F0F8FD"/><stop offset="0.74" stop-color="#74C4E9"/><stop offset="0.83" stop-color="#74C4E9"/><stop offset="1" stop-color="#A2D8F0"/></linearGradient></defs><g transform="translate(-550 -658)"><path d="M1778.01 1055.17C1768.84 1055.17 1760.68 1057.53 1753.52 1062.26 1746.36 1066.98 1740.95 1073.89 1737.3 1082.99 1733.65 1092.08 1731.82 1102 1731.82 1112.74 1731.82 1128.5 1735.76 1140.57 1743.64 1148.95 1751.51 1157.32 1761.4 1161.51 1773.28 1161.51 1782.31 1161.51 1790.4 1159.11 1797.56 1154.32 1804.72 1149.52 1810.13 1142.43 1813.78 1133.05 1817.43 1123.67 1819.26 1113.6 1819.26 1102.86 1819.26 1093.98 1817.83 1085.96 1814.96 1078.8 1812.1 1071.64 1807.41 1065.91 1800.89 1061.61 1794.37 1057.31 1786.75 1055.17 1778.01 1055.17ZM2652.37 1053.02C2642.63 1053.02 2631.6 1054.67 2619.28 1057.96 2618.13 1064.4 2617.33 1069.67 2616.9 1073.75 2616.47 1077.83 2616.04 1083.35 2615.61 1090.29 2615.18 1097.24 2614.96 1102.79 2614.96 1106.94 2614.96 1118.69 2616.79 1128.54 2620.44 1136.48 2624.09 1144.43 2629.18 1150.59 2635.7 1154.96 2642.22 1159.33 2649.2 1161.51 2656.65 1161.51 2664.53 1161.51 2671.76 1159.26 2678.35 1154.75 2684.95 1150.23 2690.18 1143.47 2694.04 1134.44 2697.91 1125.42 2699.85 1115.25 2699.85 1103.94 2699.85 1088.61 2695.8 1076.29 2687.71 1066.98 2679.61 1057.67 2667.83 1053.02 2652.37 1053.02ZM1488.37 1053.02C1478.63 1053.02 1467.6 1054.67 1455.28 1057.96 1454.13 1064.4 1453.33 1069.67 1452.9 1073.75 1452.47 1077.83 1452.04 1083.35 1451.61 1090.29 1451.18 1097.24 1450.96 1102.79 1450.96 1106.94 1450.96 1118.69 1452.79 1128.54 1456.44 1136.48 1460.09 1144.43 1465.18 1150.59 1471.7 1154.96 1478.22 1159.33 1485.2 1161.51 1492.65 1161.51 1500.53 1161.51 1507.76 1159.26 1514.36 1154.75 1520.95 1150.23 1526.18 1143.47 1530.04 1134.44 1533.91 1125.42 1535.85 1115.25 1535.85 1103.94 1535.85 1088.61 1531.8 1076.29 1523.71 1066.98 1515.61 1057.67 1503.83 1053.02 1488.37 1053.02ZM2379.55 1048.51C2365.63 1048.51 2353.79 1051.19 2344.03 1056.56 2334.27 1061.93 2326.77 1070.31 2321.53 1081.7 2316.29 1093.09 2313.67 1104.29 2313.67 1115.32 2313.67 1123.63 2315.14 1131.11 2318.08 1137.77 2321.03 1144.43 2325.55 1149.7 2331.65 1153.56 2337.75 1157.43 2344.53 1159.37 2352 1159.37 2359.89 1159.37 2367.1 1157.15 2373.63 1152.71 2380.17 1148.27 2385.48 1141.75 2389.57 1133.15 2393.66 1124.56 2396.46 1114.36 2397.96 1102.54 2399.47 1090.72 2400.51 1073.57 2401.08 1051.08 2393.48 1049.37 2386.3 1048.51 2379.55 1048.51ZM2801.58 997.588C2822.94 997.875 2837.92 998.018 2846.52 998.018 2856.55 998.018 2870.24 997.875 2887.59 997.588 2890.31 1008.62 2895.36 1027.67 2902.75 1054.74 2910.13 1081.81 2915.47 1103 2918.77 1118.33 2920.63 1126.78 2922.42 1137.52 2924.15 1150.56L2928.65 1133.37C2930.08 1128.79 2931.73 1123.56 2933.59 1117.69 2935.45 1111.81 2937.81 1104.8 2940.67 1096.63L2954.63 1057.53 2977.81 997.588C2995.7 997.875 3009.23 998.018 3018.39 998.018 3026.4 998.018 3040.71 997.875 3061.32 997.588L3019.89 1091.26 2944.97 1265.07C2940.1 1274.81 2935.44 1282.54 2930.99 1288.27 2926.84 1293.43 2922.32 1297.94 2917.45 1301.81 2912.87 1305.39 2907.92 1308.4 2902.62 1310.83 2895.45 1314.12 2887.57 1316.7 2878.97 1318.56 2869.51 1320.57 2859.91 1321.57 2850.17 1321.57 2845.72 1321.57 2839.85 1321.25 2832.54 1320.61 2825.23 1319.96 2819.32 1319.32 2814.8 1318.67 2810.29 1318.03 2804.3 1316.85 2796.85 1315.13 2792.41 1280.9 2789.4 1259.63 2787.83 1251.32 2796.86 1255.62 2804.85 1258.55 2811.8 1260.13 2818.75 1261.7 2824.74 1262.49 2829.75 1262.49 2835.06 1262.49 2840.04 1261.77 2844.69 1260.34 2849.35 1258.91 2853.04 1257.16 2855.77 1255.08 2858.49 1253 2861.47 1249.81 2864.69 1245.52 2867.92 1241.22 2870.32 1237.53 2871.89 1234.45 2873.47 1231.37 2875.05 1226.97 2876.62 1221.24L2836.2 1098.99ZM2653.43 992.002C2674.06 992.002 2693.04 994.151 2710.37 998.448 2727.7 1002.74 2741.63 1010.34 2752.16 1021.22 2762.69 1032.11 2770.6 1045.07 2775.9 1060.11 2781.2 1075.15 2783.85 1090.9 2783.85 1107.37 2783.85 1122.41 2781.7 1136.99 2777.41 1151.09 2773.12 1165.2 2766.53 1177.91 2757.66 1189.23 2748.79 1200.54 2738.59 1208.92 2727.07 1214.37 2715.55 1219.81 2702.71 1222.53 2688.54 1222.53 2681.53 1222.53 2674.27 1221.85 2666.75 1220.49 2659.24 1219.13 2652.12 1217.16 2645.4 1214.58 2638.67 1212 2633.05 1209.39 2628.54 1206.74 2624.03 1204.09 2618.42 1200.26 2611.69 1195.24L2609.31 1255.19C2608.29 1282.69 2607.79 1303.45 2607.79 1317.49 2591.15 1317.2 2576.88 1317.06 2564.98 1317.06 2554.65 1317.06 2539.74 1317.2 2520.24 1317.49 2522.95 1288.13 2525.24 1258.84 2527.1 1229.62 2530.39 1179.63 2532.64 1137.7 2533.86 1103.83 2535.08 1069.95 2535.69 1036.4 2535.69 1003.17 2564.76 998.734 2587.54 995.762 2604.01 994.258 2620.48 992.754 2636.96 992.002 2653.43 992.002ZM2113.5 992.002C2123.81 992.002 2133.88 993.112 2143.69 995.332 2153.5 997.552 2161.7 1000.7 2168.28 1004.79 2174.87 1008.87 2180.39 1013.95 2184.83 1020.04 2189.27 1026.13 2192.2 1032.68 2193.64 1039.7 2195.07 1046.72 2195.78 1053.95 2195.78 1061.4 2195.78 1066.84 2195.2 1078.58 2194.04 1096.63L2190.35 1174.4C2189.62 1189.73 2189.26 1203.91 2189.26 1216.94 2174.81 1216.66 2161.28 1216.51 2148.69 1216.51 2131.66 1216.51 2116.13 1216.66 2102.11 1216.94 2103.41 1203.91 2104.78 1184.54 2106.23 1158.83 2107.67 1133.12 2108.39 1115.04 2108.39 1104.58 2108.39 1088.4 2105.27 1077.12 2099.04 1070.74 2092.8 1064.37 2084.95 1061.18 2075.49 1061.18 2067.17 1061.18 2059.32 1063.9 2051.94 1069.35 2044.56 1074.79 2038.86 1082.7 2034.84 1093.09 2030.83 1103.47 2027.99 1120.55 2026.34 1144.33 2024.69 1168.1 2023.58 1192.31 2023 1216.94 2008.69 1216.66 1994.73 1216.51 1981.13 1216.51 1966.82 1216.51 1951.28 1216.66 1934.53 1216.94 1938.65 1184.43 1941.81 1148.52 1944.02 1109.2 1946.22 1069.88 1947.53 1032.68 1947.96 997.588 1965.17 997.875 1980.01 998.018 1992.49 998.018 2006.97 998.018 2020.88 997.875 2034.22 997.588L2032.08 1026.81C2036.81 1021.51 2040.89 1017.32 2044.33 1014.24 2047.76 1011.16 2052.02 1008.15 2057.11 1005.22 2062.19 1002.28 2067.6 999.88 2073.33 998.018 2079.06 996.156 2085.32 994.688 2092.12 993.614 2098.93 992.539 2106.05 992.002 2113.5 992.002ZM1779.51 992.002C1797.27 992.002 1814.35 994.724 1830.75 1000.17 1847.15 1005.61 1861.01 1013.45 1872.33 1023.69 1883.64 1033.93 1891.98 1045.89 1897.36 1059.57 1902.73 1073.25 1905.41 1087.97 1905.41 1103.72 1905.41 1119.05 1903.01 1133.62 1898.22 1147.44 1893.42 1161.26 1885.29 1174.23 1873.83 1186.33 1862.37 1198.43 1847.8 1207.49 1830.11 1213.51 1812.42 1219.52 1793.69 1222.53 1773.93 1222.53 1755.74 1222.53 1738.26 1219.88 1721.51 1214.58 1704.75 1209.28 1690.75 1201.55 1679.5 1191.38 1668.26 1181.21 1659.81 1169.03 1654.15 1154.85 1648.5 1140.67 1645.67 1125.78 1645.67 1110.17 1645.67 1094.55 1648.42 1079.66 1653.94 1065.48 1659.45 1051.3 1668.19 1038.55 1680.15 1027.24 1692.11 1015.92 1706.9 1007.22 1724.51 1001.13 1742.13 995.046 1760.46 992.002 1779.51 992.002ZM1489.43 992.002C1510.06 992.002 1529.04 994.151 1546.37 998.448 1563.7 1002.74 1577.63 1010.34 1588.16 1021.22 1598.69 1032.11 1606.6 1045.07 1611.9 1060.11 1617.2 1075.15 1619.85 1090.9 1619.85 1107.37 1619.85 1122.41 1617.7 1136.99 1613.41 1151.09 1609.12 1165.2 1602.53 1177.91 1593.66 1189.23 1584.79 1200.54 1574.59 1208.92 1563.07 1214.37 1551.55 1219.81 1538.71 1222.53 1524.54 1222.53 1517.53 1222.53 1510.27 1221.85 1502.75 1220.49 1495.24 1219.13 1488.12 1217.16 1481.4 1214.58 1474.67 1212 1469.05 1209.39 1464.54 1206.74 1460.03 1204.09 1454.42 1200.26 1447.69 1195.24L1445.31 1255.19C1444.29 1282.69 1443.79 1303.45 1443.79 1317.49 1427.15 1317.2 1412.88 1317.06 1400.98 1317.06 1390.65 1317.06 1375.74 1317.2 1356.24 1317.49 1358.95 1288.13 1361.24 1258.84 1363.1 1229.62 1366.39 1179.63 1368.64 1137.7 1369.86 1103.83 1371.08 1069.95 1371.69 1036.4 1371.69 1003.17 1400.76 998.734 1423.54 995.762 1440.01 994.258 1456.48 992.754 1472.96 992.002 1489.43 992.002ZM2406.36 923.682C2423.96 923.969 2438.34 924.112 2449.5 924.112 2463.95 924.112 2478.54 923.969 2493.28 923.682 2489.14 966.221 2485.49 1018.14 2482.35 1079.44 2479.2 1140.75 2477.63 1186.58 2477.63 1216.94 2462.3 1216.66 2449.54 1216.51 2439.37 1216.51 2427.91 1216.51 2414.01 1216.66 2397.67 1216.94L2398.9 1189.66C2393.32 1195.1 2388.45 1199.51 2384.3 1202.87 2380.15 1206.24 2374.81 1209.5 2368.3 1212.65 2361.78 1215.8 2354.77 1218.23 2347.25 1219.95 2339.74 1221.67 2331.97 1222.53 2323.95 1222.53 2310.2 1222.53 2297.35 1220.02 2285.4 1215.01 2273.44 1210 2263.24 1202.87 2254.79 1193.63 2246.35 1184.39 2240.05 1173.44 2235.9 1160.76 2231.74 1148.09 2229.67 1134.95 2229.67 1121.34 2229.67 1102 2233.46 1083.1 2241.06 1064.62 2248.66 1046.14 2258.58 1031.61 2270.84 1021.01 2283.09 1010.41 2296.93 1002.92 2312.33 998.555 2327.74 994.187 2344.4 992.002 2362.32 992.002 2374.22 992.002 2388.12 993.077 2404.03 995.225 2405.16 978.181 2405.94 954.333 2406.36 923.682Z" fill="url(#fill0)" fill-rule="evenodd"/><text fill="#000000" fill-opacity="0" font-family="Arial,Arial_MSFontService,sans-serif" font-size="397.891" x="1356.24" y="1271.84">pondpy</text></g></svg>